<?xml version="1.0" encoding="UTF-8" standalone="no"?>
<svg
   xmlns:dc="http://purl.org/dc/elements/1.1/"
   xmlns:cc="http://creativecommons.org/ns#"
   xmlns:rdf="http://www.w3.org/1999/02/22-rdf-syntax-ns#"
   xmlns:svg="http://www.w3.org/2000/svg"
   xmlns="http://www.w3.org/2000/svg"
   xmlns:sodipodi="http://sodipodi.sourceforge.net/DTD/sodipodi-0.dtd"
   xmlns:inkscape="http://www.inkscape.org/namespaces/inkscape"
   version="1.2"
   width="204.91429mm"
   height="126.37mm"
   viewBox="0 0 20491.429 12636.999"
   preserveAspectRatio="xMidYMid"
   xml:space="preserve"
   id="svg2"
   inkscape:version="0.91 r13725"
   sodipodi:docname="tdd-workflow.svg"
   style="fill-rule:evenodd;stroke-width:28.22200012;stroke-linejoin:round"><metadata
     id="metadata378"><rdf:RDF><cc:Work
         rdf:about=""><dc:format>image/svg+xml</dc:format><dc:type
           rdf:resource="http://purl.org/dc/dcmitype/StillImage" /><dc:title></dc:title></cc:Work></rdf:RDF></metadata><sodipodi:namedview
     pagecolor="#ffffff"
     bordercolor="#666666"
     borderopacity="1"
     objecttolerance="10"
     gridtolerance="10"
     guidetolerance="10"
     inkscape:pageopacity="0"
     inkscape:pageshadow="2"
     inkscape:window-width="1366"
     inkscape:window-height="704"
     id="namedview376"
     showgrid="false"
     inkscape:zoom="0.98890193"
     inkscape:cx="289.03845"
     inkscape:cy="221.28608"
     inkscape:window-x="0"
     inkscape:window-y="27"
     inkscape:window-maximized="1"
     inkscape:current-layer="svg2"
     fit-margin-top="0"
     fit-margin-left="0"
     fit-margin-right="0"
     fit-margin-bottom="0" /><defs
     class="ClipPathGroup"
     id="defs4" /><defs
     id="defs9" /><defs
     id="defs22" /><defs
     id="defs115" /><defs
     class="TextShapeIndex"
     id="defs126" /><defs
     class="EmbeddedBulletChars"
     id="defs130" /><defs
     class="TextEmbeddedBitmaps"
     id="defs159" /><rect
     style="fill:none;stroke:none"
     id="rect230"
     height="5537"
     width="5538"
     y="-0.00043063695"
     x="5830.2368"
     class="BoundingBox" /><path
     style="fill:#ff0000;stroke:none"
     inkscape:connector-curvature="0"
     id="path232"
     d="m 5867.2368,2767.9996 0,0 4,-143 11,-142 18,-142 26,-141 34,-139 40,-137 48,-135 55,-132 61,-129 69,-126 74,-122 81,-117 87,-114 93,-109.00003 98,-103 104,-99 109,-93 113,-87 118,-81 122,-75 126,-68 129,-61 132,-55 135,-48 137,-41 139,-33.000001 141,-26 141,-19 143,-11 143,-4 0,0 143,4 142,11 142,19 141,26 139,33.000001 137,41 134,47 133,55 129,62 125,68 122.0002,75 118,81 113,87 109,92 104,99 98,104 93,108.00003 87,114 81,118 75,121 68,126 62,129 54,132 48,135 41,137 33,139 26,141 19,142 11,142 4,143 0,0 -4,143 -11,143 -19,141 -26,141 -33,139 -41,137 -47,135 -55,132 -62,129 -68,126 -75,122 -81,118 -87,113 -92,109 -99,103 -104,99 -108,93 -114,87 -118,81 -121.0002,75 -126,68 -129,62 -132,54 -135,48 -137,41 -139,33 -141,26 -142,19 -142,11 -143,4 0,0 -143,-4 -143,-11 -141,-19 -141,-26 -139,-33 -137,-41 -135,-47 -132,-55 -129,-62 -126,-68 -122,-75 -118,-81 -113,-87 -109,-92 -103,-99 -99,-104 -93,-108 -87,-114 -81,-118 -75,-121 -68,-126 -62,-129 -54,-132 -48,-135 -41,-137 -33,-139 -26,-141 -19,-142 -11,-142 -4,-143 1,0 z m 0,-2732.000031 0,0 z m 5464.0002,5464.000031 0,0 z" /><rect
     style="fill:none;stroke:none"
     id="rect255"
     height="2179"
     width="1642"
     y="5193.9995"
     x="9787.2363"
     class="BoundingBox" /><path
     style="fill:#b2c0da;stroke:none"
     inkscape:connector-curvature="0"
     id="path257"
     d="m 10746.237,5377.9996 363,628 318,-184 -436,1089 -1160.0002,-167 319.0002,-185 -362.0002,-627 958.0002,-554 z m 319,-184 0,0 z m -872,2178 0,0 z" /><rect
     style="fill:none;stroke:none"
     id="rect262"
     height="5537"
     width="5538"
     y="7099.9995"
     x="9930.2363"
     class="BoundingBox" /><path
     style="fill:#4f81bd;stroke:none"
     inkscape:connector-curvature="0"
     id="path264"
     d="m 9967.2368,9867.9996 0,0 4,-143 11,-142 18.0002,-142 26,-141 34,-139 40,-137 48,-135 55,-132 61,-129 69,-126 74,-122 81,-117 87,-114 93,-109 98,-103 104,-99 109,-93 113,-87 118,-81 122,-75 126,-68 129,-61 132,-55 135,-48 137,-41 139,-33 141,-26 141,-19 143,-11 143,-4 0,0 143,4 142,11 142,19 141,26 139,33 137,41 134,47 133,55 129,62 125,68 122,75 118,81 113,87 109,92 104,99 98,104 93,108 87,114 81,118 75,121 68,126 62,129 54,132 48,135 41,137 33,139 26,141 19,142 11,142 4,143 0,0 -4,143.0004 -11,143 -19,141 -26,141 -33,139 -41,137 -47,135 -55,132 -62,129 -68,126 -75,122 -81,118 -87,113 -92,109 -99,103 -104,99 -108,93 -114,87 -118,81 -121,75 -126,68 -129,62 -132,54 -135,48 -137,41 -139,33 -141,26 -142,19 -142,11 -143,4 0,0 -143,-4 -143,-11 -141,-19 -141,-26 -139,-33 -137,-41 -135,-47 -132,-55 -129,-62 -126,-68 -122,-75 -118,-81 -113,-87 -109,-92 -103,-99 -99,-104 -93,-108 -87,-114 -81,-118 -75,-121 -68,-126 -62,-129 -54,-132 -48,-135 -41,-137 -33,-139 -26,-141 -19.0002,-142 -11,-142 -4,-143.0004 1,0 z m 0,-2732 0,0 z M 15431.237,12600 l 0,0 z" /><rect
     style="fill:none;stroke:none"
     id="rect287"
     height="1845"
     width="1452"
     y="8947"
     x="7915.2368"
     class="BoundingBox" /><path
     style="fill:#b2c0da;stroke:none"
     inkscape:connector-curvature="0"
     id="path289"
     d="m 9366.2368,10423 -725,0 0,368 -725,-922.0004 725,-922 0,369 725,0 0,1107.0004 z m 0,368 0,0 z m -1450,-1844.0004 0,0 z" /><rect
     style="fill:none;stroke:none"
     id="rect294"
     height="5537"
     width="5538"
     y="7099.9995"
     x="1731.2368"
     class="BoundingBox" /><path
     style="fill:#92d050;stroke:none"
     inkscape:connector-curvature="0"
     id="path296"
     d="m 1768.2368,9867.9996 0,0 4,-143 11,-142 18,-142 26,-141 34,-139 40,-137 48,-135 55,-132 61,-129 69,-126 74,-122 81,-117 87,-114 93,-109 98,-103 104,-99 109,-93 113,-87 118,-81 122,-75 126,-68 129,-61 132,-55 135,-48 137,-41 139,-33 141,-26 141,-19 143,-11 143,-4 0,0 143,4 142,11 142,19 141,26 139,33 137,41 134,47 133,55 129,62 125,68 122,75 118,81 113,87 109,92 104,99 98,104 93,108 87,114 81,118 75,121 68,126 62,129 54,132 48,135 41,137 33,139 26,141 19,142 11,142 4,143 0,0 -4,143.0004 -11,143 -19,141 -26,141 -33,139 -41,137 -47,135 -55,132 -62,129 -68,126 -75,122 -81,118 -87,113 -92,109 -99,103 -104,99 -108,93 -114,87 -118,81 -121,75 -126,68 -129,62 -132,54 -135,48 -137,41 -139,33 -141,26 -142,19 -142,11 -143,4 0,0 -143,-4 -143,-11 -141,-19 -141,-26 -139,-33 -137,-41 -135,-47 -132,-55 -129,-62 -126,-68 -122,-75 -118,-81 -113,-87 -109,-92 -103,-99 -99,-104 -93,-108 -87,-114 -81,-118 -75,-121 -68,-126 -62,-129 -54,-132 -48,-135 -41,-137 -33,-139 -26,-141 -19,-142 -11,-142 -4,-143.0004 1,0 z m 0,-2732 0,0 z m 5464,5464.0004 0,0 z" /><rect
     style="fill:none;stroke:none"
     id="rect325"
     height="1534"
     width="2323"
     y="5725.9995"
     x="5368.2368"
     class="BoundingBox" /><path
     style="fill:#b2c0da;stroke:none"
     inkscape:connector-curvature="0"
     id="path327"
     d="m 5687.2368,6704.9996 362,-628 -318,-184 1161,-167 435,1089 -319,-184 -363,627 -958,-553 z m -319,-184 0,0 z m 2322,-334 0,0 z" /><text
     class="TextShape"
     id="text336"
     x="-4099.7632"
     y="-4412.0005"><tspan
       class="TextParagraph"
       font-size="635px"
       font-weight="400"
       id="tspan338"
       style="font-weight:400;font-size:635px;font-family:Calibri, sans-serif"><tspan
         class="TextPosition"
         x="-69.763184"
         y="5071.9995"
         id="tspan340" /><tspan
         class="TextPosition"
         x="-69.763184"
         y="5071.9995"
         id="tspan342"><tspan
           id="tspan344"
           style="fill:#000000;stroke:none">1. implement test</tspan></tspan></tspan></text>
<text
     class="TextShape"
     id="text351"
     x="-4099.7632"
     y="-4412.0005"><tspan
       class="TextParagraph"
       font-size="635px"
       font-weight="400"
       id="tspan353"
       style="font-weight:400;font-size:635px;font-family:Calibri, sans-serif"><tspan
         class="TextPosition"
         x="12110.236"
         y="6097.9995"
         id="tspan355" /><tspan
         class="TextPosition"
         x="12110.236"
         y="6097.9995"
         id="tspan357"><tspan
           id="tspan359"
           style="fill:#000000;stroke:none">2. implement functionality</tspan></tspan></tspan></text>
<text
     class="TextShape"
     id="text366"
     x="-4099.7632"
     y="-4412.0005"><tspan
       class="TextParagraph"
       font-size="635px"
       font-weight="400"
       id="tspan368"
       style="font-weight:400;font-size:635px;font-family:Calibri, sans-serif"><tspan
         class="TextPosition"
         x="6897.2368"
         y="12513"
         id="tspan370" /><tspan
         class="TextPosition"
         x="6897.2368"
         y="12513"
         id="tspan372"><tspan
           id="tspan374"
           style="fill:#000000;stroke:none">3. run tests</tspan></tspan></tspan></text>
<text
     xml:space="preserve"
     style="font-style:normal;font-weight:normal;font-size:1128.88879395px;line-height:125%;font-family:sans-serif;letter-spacing:0px;word-spacing:0px;fill:#000000;fill-opacity:1;stroke:none;stroke-width:1px;stroke-linecap:butt;stroke-linejoin:miter;stroke-opacity:1"
     x="8514.4512"
     y="3279.4971"
     id="text4354"
     sodipodi:linespacing="125%"><tspan
       sodipodi:role="line"
       id="tspan4356"
       x="8514.4512"
       y="3279.4971" /></text>
<text
     xml:space="preserve"
     style="font-style:normal;font-weight:normal;font-size:1128.88879395px;line-height:125%;font-family:sans-serif;text-align:center;letter-spacing:0px;word-spacing:0px;text-anchor:middle;fill:#ffffff;fill-opacity:1;stroke:none;stroke-width:1px;stroke-linecap:butt;stroke-linejoin:miter;stroke-opacity:1"
     x="8646.2441"
     y="2566.0234"
     id="text4372"
     sodipodi:linespacing="125%"><tspan
       sodipodi:role="line"
       id="tspan4374"
       x="8646.2441"
       y="2566.0234">Test</tspan><tspan
       sodipodi:role="line"
       x="8646.2441"
       y="3977.1345"
       id="tspan4376">failes</tspan></text>
<text
     xml:space="preserve"
     style="font-style:normal;font-weight:normal;font-size:1128.88867188px;line-height:125%;font-family:sans-serif;text-align:center;letter-spacing:0px;word-spacing:0px;text-anchor:middle;fill:#ffffff;fill-opacity:1;stroke:none;stroke-width:1px;stroke-linecap:butt;stroke-linejoin:miter;stroke-opacity:1"
     x="12724.561"
     y="9598.4678"
     id="text4372-8"
     sodipodi:linespacing="125%"><tspan
       sodipodi:role="line"
       x="12724.561"
       y="9598.4678"
       id="tspan4376-5">write</tspan><tspan
       sodipodi:role="line"
       x="12724.561"
       y="11009.578"
       id="tspan4401">code</tspan></text>
<text
     xml:space="preserve"
     style="font-style:normal;font-weight:normal;font-size:1128.88867188px;line-height:125%;font-family:sans-serif;text-align:center;letter-spacing:0px;word-spacing:0px;text-anchor:middle;fill:#ffffff;fill-opacity:1;stroke:none;stroke-width:1px;stroke-linecap:butt;stroke-linejoin:miter;stroke-opacity:1"
     x="4525.3374"
     y="9530.2139"
     id="text4372-8-8"
     sodipodi:linespacing="125%"><tspan
       sodipodi:role="line"
       x="4525.3374"
       y="9530.2139"
       id="tspan4401-5">Test</tspan><tspan
       sodipodi:role="line"
       x="4525.3374"
       y="10941.324"
       id="tspan4426">passes</tspan></text>
<flowRoot
     xml:space="preserve"
     id="flowRoot4428"
     style="font-style:normal;font-weight:normal;font-size:40px;line-height:125%;font-family:sans-serif;letter-spacing:0px;word-spacing:0px;fill:#000000;fill-opacity:1;stroke:none;stroke-width:1px;stroke-linecap:butt;stroke-linejoin:miter;stroke-opacity:1"
     transform="matrix(28.222221,0,0,28.222221,-4099.7632,-4412.0004)"><flowRegion
       id="flowRegion4430"><rect
         id="rect4432"
         width="126.40282"
         height="120.33549"
         x="87.976372"
         y="35.907303" /></flowRegion><flowPara
       id="flowPara4434"></flowPara></flowRoot></svg>